<svg xmlns="http://www.w3.org/2000/svg"><symbol id="icon-bell" viewBox="0 0 32 32"><title>icon-bell</title><path d="M28.14 24c1.094-.003 1.453-.723.797-1.602 0 0-4.805-6.438-4.805-10.397v-1c0-4.97-3.582-9-8-9s-8 4.03-8 9v1c0 3.96-4.805 10.397-4.805 10.397-.656.88-.293 1.603.805 1.603H28.14zm-12.008 6a4 4 0 0 0 4-4h-8c0 2.208 1.793 4 4 4z" fill-rule="evenodd"/></symbol><symbol id="icon-edit" viewBox="0 0 32 32"><title>icon-edit</title><path d="M28.62 3.38a4.706 4.706 0 0 0-6.657 0L19.78 5.562l6.66 6.658 2.18-2.183a4.706 4.706 0 0 0 0-6.658zM18.54 6.8L3.65 21.692 2 30l8.308-1.65 14.89-14.892L18.542 6.8z" fill-rule="evenodd"/></symbol><symbol id="icon-gear" viewBox="0 0 32 32"><title>icon-gear</title><path d="M29.242 13.81l-2.072-.52a1.004 1.004 0 0 1-.71-.663 10.936 10.936 0 0 0-.68-1.64 1.004 1.004 0 0 1 .033-.973l1.1-1.83a1 1 0 0 0-.15-1.223l-1.726-1.726a1 1 0 0 0-1.222-.15l-1.832 1.1c-.296.178-.664.19-.972.033-.522-.27-1.07-.495-1.64-.678a1 1 0 0 1-.665-.71l-.518-2.073A.996.996 0 0 0 17.22 2h-2.44a1 1 0 0 0-.97.758l-.517 2.072a1.003 1.003 0 0 1-.665.71c-.57.183-1.118.41-1.643.68a1.004 1.004 0 0 1-.97-.034l-1.83-1.098a1.003 1.003 0 0 0-1.223.15L5.238 6.963a1 1 0 0 0-.15 1.222l1.098 1.83c.178.295.19.663.033.97-.27.525-.497 1.074-.68 1.644-.106.328-.375.58-.71.663l-2.072.518a1 1 0 0 0-.757.97v2.44a1 1 0 0 0 .757.97l2.072.52c.335.083.604.334.71.663.183.57.41 1.117.678 1.642a1 1 0 0 1-.032.972l-1.098 1.83a1 1 0 0 0 .15 1.22l1.724 1.727a1 1 0 0 0 1.223.15l1.83-1.098c.295-.178.664-.19.97-.033.525.27 1.074.496 1.643.68.33.104.58.373.665.71l.518 2.07c.11.445.51.757.97.757h2.44a1 1 0 0 0 .97-.758l.517-2.072c.084-.335.336-.604.665-.71.57-.183 1.117-.41 1.642-.68.308-.156.676-.144.972.034l1.83 1.098a1 1 0 0 0 1.222-.15l1.726-1.726a1 1 0 0 0 .15-1.222l-1.1-1.83a1.003 1.003 0 0 1-.032-.972c.27-.524.495-1.072.678-1.64a1 1 0 0 1 .71-.666l2.073-.518a.997.997 0 0 0 .757-.97V14.78a1 1 0 0 0-.758-.97zM16 21a5 5 0 0 1-5-5 5 5 0 0 1 5-5 5 5 0 0 1 5 5 5 5 0 0 1-5 5z" fill-rule="evenodd"/></symbol><symbol id="icon-mail" viewBox="0 0 32 32"><title>icon-mail</title><path d="M16 18.82c-.367 0-.734-.102-1.06-.304L0 9.18V26a2 2 0 0 0 2 2h28a2 2 0 0 0 2-2V9.18l-14.937 9.336A2.02 2.02 0 0 1 16 18.82zM30 4H2a2 2 0 0 0-2 2v.82l16 10 16-10V6a2 2 0 0 0-2-2z" fill-rule="evenodd"/></symbol><symbol id="icon-search" viewBox="0 0 32 32"><title>icon-search</title><path d="M23.098 20.035a11.474 11.474 0 0 0 2.035-6.535c0-6.35-5.148-11.5-11.5-11.5-6.35 0-11.5 5.15-11.5 11.5S7.283 25 13.633 25c2.443 0 4.704-.768 6.566-2.066l6.397 6.46a2.06 2.06 0 0 0 1.465.606 2.07 2.07 0 0 0 1.464-3.537l-6.428-6.428zM13.633 22c-4.687 0-8.5-3.813-8.5-8.5 0-4.686 3.813-8.5 8.5-8.5 4.687 0 8.5 3.814 8.5 8.5 0 4.687-3.813 8.5-8.5 8.5" fill-rule="evenodd"/></symbol></svg>