<?xml version="1.0" encoding="UTF-8" standalone="no"?>
<svg width="32px" height="32px" viewBox="0 0 32 32" version="1.1" xmlns="http://www.w3.org/2000/svg" xmlns:xlink="http://www.w3.org/1999/xlink" xmlns:sketch="http://www.bohemiancoding.com/sketch/ns">
    <!-- Generator: Sketch 3.5.2 (25235) - http://www.bohemiancoding.com/sketch -->
    <title>icon-bell</title>
    <desc>Created with Sketch.</desc>
    <defs></defs>
    <g id="Page-1" stroke="none" stroke-width="1" fill="none" fill-rule="evenodd" sketch:type="MSPage">
        <g id="icon-bell-+-bell" sketch:type="MSLayerGroup" fill="#000000">
            <path d="M28.1399067,24 C29.2339067,23.997 29.5929067,23.277 28.9369067,22.398 C28.9369067,22.398 24.1319067,15.96 24.1319067,12.001 L24.1319067,11 C24.1319067,6.029 20.5499067,2 16.1319067,2 C11.7139067,2 8.13190673,6.029 8.13190673,11 L8.13190673,12 C8.13190673,15.959 3.32690673,22.397 3.32690673,22.397 C2.67090673,23.278 3.03390673,24 4.13190673,24 L28.1399067,24 Z M16.1319067,30 C18.3429067,30 20.1319067,28.208 20.1319067,26 L12.1319067,26 C12.1319067,28.208 13.9249067,30 16.1319067,30 Z" id="bell" sketch:type="MSShapeGroup"></path>
        </g>
    </g>
</svg>