<?xml version="1.0" encoding="UTF-8" standalone="no"?>
<svg width="32px" height="32px" viewBox="0 0 32 32" version="1.1" xmlns="http://www.w3.org/2000/svg" xmlns:xlink="http://www.w3.org/1999/xlink" xmlns:sketch="http://www.bohemiancoding.com/sketch/ns">
    <!-- Generator: Sketch 3.5.2 (25235) - http://www.bohemiancoding.com/sketch -->
    <title>icon-gear</title>
    <desc>Created with Sketch.</desc>
    <defs></defs>
    <g id="Page-1" stroke="none" stroke-width="1" fill="none" fill-rule="evenodd" sketch:type="MSPage">
        <g id="icon-gear-+-gear" sketch:type="MSLayerGroup" fill="#000000">
            <path d="M29.242,13.809 L27.17,13.291 C26.834,13.207 26.565,12.955 26.459,12.627 C26.276,12.059 26.049,11.51 25.78,10.986 C25.623,10.678 25.635,10.311 25.813,10.014 L26.913,8.183 C27.149,7.789 27.087,7.286 26.763,6.961 L25.037,5.234 C24.712,4.91 24.209,4.848 23.815,5.085 L21.983,6.184 C21.687,6.362 21.319,6.374 21.011,6.217 C20.488,5.948 19.94,5.722 19.37,5.539 C19.041,5.434 18.789,5.165 18.705,4.829 L18.187,2.757 C18.077,2.312 17.678,2 17.219,2 L14.78,2 C14.321,2 13.922,2.312 13.81,2.758 L13.293,4.83 C13.209,5.165 12.957,5.434 12.628,5.54 C12.059,5.723 11.51,5.95 10.985,6.219 C10.678,6.376 10.311,6.363 10.014,6.186 L8.184,5.088 C7.79,4.853 7.287,4.914 6.962,5.238 L5.238,6.963 C4.914,7.287 4.851,7.791 5.088,8.185 L6.186,10.014 C6.364,10.31 6.376,10.678 6.219,10.986 C5.95,11.51 5.723,12.059 5.54,12.629 C5.434,12.958 5.165,13.209 4.829,13.293 L2.758,13.811 C2.313,13.922 2.001,14.323 2.001,14.781 L2,17.219 C2,17.678 2.312,18.078 2.757,18.19 L4.829,18.709 C5.165,18.793 5.434,19.044 5.54,19.373 C5.723,19.942 5.949,20.49 6.218,21.015 C6.376,21.323 6.364,21.69 6.186,21.987 L5.088,23.817 C4.852,24.21 4.914,24.713 5.238,25.038 L6.962,26.764 C7.287,27.089 7.791,27.151 8.185,26.914 L10.014,25.816 C10.31,25.638 10.679,25.626 10.986,25.783 C11.51,26.052 12.059,26.279 12.628,26.462 C12.958,26.567 13.209,26.836 13.293,27.172 L13.811,29.244 C13.921,29.688 14.32,30 14.779,30 L17.219,30 C17.678,30 18.077,29.688 18.189,29.242 L18.707,27.17 C18.791,26.835 19.043,26.566 19.372,26.46 C19.941,26.277 20.489,26.05 21.014,25.781 C21.322,25.624 21.69,25.636 21.986,25.814 L23.816,26.912 C24.21,27.148 24.712,27.087 25.038,26.763 L26.764,25.036 C27.088,24.712 27.151,24.208 26.914,23.814 L25.815,21.984 C25.637,21.688 25.625,21.32 25.782,21.012 C26.051,20.488 26.277,19.94 26.46,19.371 C26.566,19.041 26.835,18.79 27.171,18.706 L29.243,18.188 C29.688,18.078 30,17.678 30,17.219 L30,14.78 C30,14.32 29.688,13.92 29.242,13.809 L29.242,13.809 Z M16,21 C13.238,21 11,18.762 11,16 C11,13.238 13.238,11 16,11 C18.762,11 21,13.238 21,16 C21,18.762 18.762,21 16,21 L16,21 Z" id="gear" sketch:type="MSShapeGroup"></path>
        </g>
    </g>
</svg>