<?xml version="1.0" encoding="UTF-8" standalone="no"?>
<svg width="32px" height="32px" viewBox="0 0 32 32" version="1.1" xmlns="http://www.w3.org/2000/svg" xmlns:xlink="http://www.w3.org/1999/xlink" xmlns:sketch="http://www.bohemiancoding.com/sketch/ns">
    <!-- Generator: Sketch 3.5.2 (25235) - http://www.bohemiancoding.com/sketch -->
    <title>icon-search</title>
    <desc>Created with Sketch.</desc>
    <defs></defs>
    <g id="Page-1" stroke="none" stroke-width="1" fill="none" fill-rule="evenodd" sketch:type="MSPage">
        <g id="icon-search-+-search" sketch:type="MSLayerGroup" fill="#000000">
            <path d="M23.0975163,20.035 C24.3655163,18.203 25.1325163,15.942 25.1325163,13.5 C25.1325163,7.149 19.9845163,2 13.6325163,2 C7.28251629,2 2.13251629,7.149 2.13251629,13.5 C2.13251629,19.851 7.28251629,25 13.6325163,25 C16.0755163,25 18.3365163,24.232 20.1985163,22.934 L26.5965163,29.393 C26.9995163,29.798 27.5305163,30 28.0615163,30 C28.5915163,30 29.1205163,29.798 29.5255163,29.393 C30.3355163,28.583 30.3355163,27.271 29.5255163,26.463 L23.0975163,20.035 Z M13.6325163,22 C8.94551629,22 5.13251629,18.187 5.13251629,13.5 C5.13251629,8.814 8.94551629,5 13.6325163,5 C18.3195163,5 22.1325163,8.814 22.1325163,13.5 C22.1325163,18.187 18.3195163,22 13.6325163,22" id="search" sketch:type="MSShapeGroup"></path>
        </g>
    </g>
</svg>