<?xml version="1.0" encoding="UTF-8" standalone="no"?>
<svg width="32px" height="32px" viewBox="0 0 32 32" version="1.1" xmlns="http://www.w3.org/2000/svg" xmlns:xlink="http://www.w3.org/1999/xlink" xmlns:sketch="http://www.bohemiancoding.com/sketch/ns">
    <!-- Generator: Sketch 3.5.2 (25235) - http://www.bohemiancoding.com/sketch -->
    <title>icon-mail</title>
    <desc>Created with Sketch.</desc>
    <defs></defs>
    <g id="Page-1" stroke="none" stroke-width="1" fill="none" fill-rule="evenodd" sketch:type="MSPage">
        <g id="icon-mail-+-mail" sketch:type="MSLayerGroup" fill="#000000">
            <path d="M16,18.82 C15.633,18.82 15.266,18.718 14.941,18.516 L0,9.179 L0,26 C0,27.104 0.895,28 2,28 L30,28 C31.105,28 32,27.104 32,26 L32,9.179 L17.063,18.516 C16.738,18.718 16.367,18.82 16,18.82 Z M30,4 L2,4 C0.898,4 0,4.895 0,6 L0,6.82 L16,16.82 L32,6.82 L32,6 C32,4.895 31.105,4 30,4 Z" id="mail" sketch:type="MSShapeGroup"></path>
        </g>
    </g>
</svg>